<?xml version="1.0" standalone="no"?><!DOCTYPE svg PUBLIC "-//W3C//DTD SVG 1.1//EN" "http://www.w3.org/Graphics/SVG/1.1/DTD/svg11.dtd"><svg t="1629272884123" class="icon" viewBox="0 0 1024 1024" version="1.1" xmlns="http://www.w3.org/2000/svg" p-id="20066" xmlns:xlink="http://www.w3.org/1999/xlink" width="200" height="200"><defs><style type="text/css"></style></defs><path d="M853.836 414.72L537.454 72.684a34.56 34.56 0 0 0-4.618-6.281 29.51 29.51 0 0 0-1.625-1.625c-11.965-11.067-30.636-10.34-41.703 1.625L169.164 412.72c-12.228 13.22-12.228 33.622 0 46.842a29.51 29.51 0 0 0 1.625 1.624c11.965 11.068 30.636 10.34 41.703-1.624L510.576 137.31l299.932 324.25c11.067 11.965 29.738 12.693 41.703 1.625a29.51 29.51 0 0 0 1.625-1.624c12.228-13.22 12.228-33.622 0-46.842zM853.836 606.244L537.455 948.279a34.56 34.56 0 0 1-4.619 6.283 29.51 29.51 0 0 1-1.625 1.624c-11.965 11.068-30.636 10.34-41.703-1.624L169.164 608.244c-12.228-13.22-12.228-33.622 0-46.841a29.513 29.513 0 0 1 1.625-1.625c11.965-11.067 30.636-10.34 41.703 1.625l298.084 322.251 299.932-324.251c11.067-11.965 29.738-12.692 41.703-1.625a29.51 29.51 0 0 1 1.625 1.625c12.228 13.22 12.228 33.621 0 46.84z" fill="#333333" p-id="20067"></path></svg>