<?xml version="1.0" standalone="no"?><!DOCTYPE svg PUBLIC "-//W3C//DTD SVG 1.1//EN" "http://www.w3.org/Graphics/SVG/1.1/DTD/svg11.dtd"><svg t="1629349151039" class="icon" viewBox="0 0 1024 1024" version="1.1" xmlns="http://www.w3.org/2000/svg" p-id="2056" xmlns:xlink="http://www.w3.org/1999/xlink" width="200" height="200"><defs><style type="text/css"></style></defs><path d="M512 512c123.71 0 224-100.28 224-224S635.71 64 512 64 288 164.29 288 288s100.29 224 224 224z m0-384c88.22 0 160 71.78 160 160s-71.78 160-160 160-160-71.78-160-160 71.78-160 160-160zM704 576H320c-105.6 0-192 86.4-192 192s86.4 192 192 192h384c105.6 0 192-86.39 192-192s-86.4-192-192-192z m0 320H320a128 128 0 0 1 0-256h384a128 128 0 0 1 0 256z" p-id="2057"></path></svg>